<?xml version="1.0" encoding="utf-8"?>
<!-- Generator: Adobe Illustrator 24.1.1, SVG Export Plug-In . SVG Version: 6.00 Build 0)  -->
<svg version="1.1" id="Layer_1" xmlns="http://www.w3.org/2000/svg" xmlns:xlink="http://www.w3.org/1999/xlink" x="0px" y="0px"
	 viewBox="0 0 512 512" style="enable-background:new 0 0 512 512; " xml:space="preserve">
<g>
	<path d="M133.5,96.1L133.5,96.1c-21,0-38,17-38,37.9c0,21,17,38,37.9,38s38-17,38-38C171.4,113.1,154.4,96.1,133.5,96.1L133.5,96.1
		z"/>
	<rect x="100.8" y="200.8" width="65.5" height="210.6"/>
	<path d="M332.9,195.6c-31.9,0-53.2,17.5-61.9,34h-0.9v-28.8h-62.8v210.6h65.4V307.2c0-27.5,5.2-54.1,39.3-54.1
		c33.6,0,34,31.4,34,55.8v102.4h65.4V295.9C411.4,239.2,399.2,195.6,332.9,195.6L332.9,195.6z"/>
	<path d="M444,0H67.9C30.4,0,0,30.1,0,67.1v377.7c0,37,30.5,67.2,67.9,67.2H444c37.5,0,68-30.1,68-67.2V67.1C512,30.1,481.5,0,444,0
		z M476.7,444.8c0,17.6-14.7,31.9-32.7,31.9H67.9c-18,0-32.6-14.3-32.6-31.9V67.1c0-17.6,14.6-31.8,32.6-31.8H444
		c18,0,32.7,14.2,32.7,31.8V444.8z"/>
</g>
</svg>
