<svg xmlns="http://www.w3.org/2000/svg" viewBox="0 0 64 64"><path fill="#fff" d="M10.489 25.495h-6a.5.5 0 0 1-.5-.5v-4.006c0-1.93 1.57-3.5 3.5-3.5s3.5 1.57 3.5 3.5v4.006a.5.5 0 0 1-.5.5zm-5.5-1h5v-3.506c0-1.378-1.121-2.5-2.5-2.5s-2.5 1.122-2.5 2.5v3.506z"/><path fill="#fff" d="M19.489 45.495h-9a.5.5 0 0 1-.5-.5V23.989a.5.5 0 0 1 1 0v20.506h8.5a.5.5 0 0 1 0 1zm11-11.99a.5.5 0 0 1-.5-.5V20.989c0-1.378-1.121-2.5-2.5-2.5h-20a.5.5 0 0 1 0-1h20c1.93 0 3.5 1.57 3.5 3.5v12.016a.5.5 0 0 1-.5.5zm27.022 14.99h-23a.5.5 0 0 1 0-1h22.5v-31h-22v11.49a.5.5 0 0 1-1 0v-11.99a.5.5 0 0 1 .5-.5h23a.5.5 0 0 1 .5.5v32a.5.5 0 0 1-.5.5z"/><path fill="#fff" d="M50.511 48.495a.5.5 0 0 1-.5-.5v-10c0-.167.084-.323.223-.416l2.777-1.852V15.995a.5.5 0 0 1 1 0v20a.501.501 0 0 1-.223.416l-2.777 1.852v9.732a.5.5 0 0 1-.5.5zm9-27.006h-2a.5.5 0 0 1-.5-.5v-3a.5.5 0 0 1 .5-.5h2a.5.5 0 0 1 .5.5v3a.5.5 0 0 1-.5.5zm-1.5-1h1v-2h-1v2zm1.5 6h-2a.5.5 0 0 1-.5-.5v-3a.5.5 0 0 1 .5-.5h2a.5.5 0 0 1 .5.5v3a.5.5 0 0 1-.5.5zm-1.5-1h1v-2h-1v2zm1.5 6h-2a.5.5 0 0 1-.5-.5v-3a.5.5 0 0 1 .5-.5h2a.5.5 0 0 1 .5.5v3a.5.5 0 0 1-.5.5zm-1.5-1h1v-2h-1v2zM16.989 48.485c-1.654 0-3-1.346-3-3v-.49h1v.49c0 1.103.897 2 2 2v1zm28-9.5h-1v-8.5c0-1.103-.897-2-2-2h-11.25v-1h11.25c1.654 0 3 1.346 3 3v8.5z"/><path fill="#fff" d="M41.989 48.505h-25v-1c1.103 0 2-.897 2-2v-10c0-1.654 1.346-3 3-3h20c1.654 0 3 1.346 3 3v10c0 1.654-1.345 3-3 3zm-22.765-1H41.99c1.103 0 2-.897 2-2v-10c0-1.103-.897-2-2-2h-20c-1.103 0-2 .897-2 2v10a2.999 2.999 0 0 1-.766 2z"/><path fill="#fff" d="M24.489 21.489h-8a.5.5 0 0 1 0-1h8a.5.5 0 0 1 0 1zm3 3h-14a.5.5 0 0 1 0-1h14a.5.5 0 0 1 0 1zm0 3h-14a.5.5 0 0 1 0-1h14a.5.5 0 0 1 0 1zm0 3h-14a.5.5 0 0 1 0-1h14a.5.5 0 0 1 0 1zm-6 3h-8a.5.5 0 0 1 0-1h8a.5.5 0 0 1 0 1zm-2 3h-6a.5.5 0 0 1 0-1h6a.5.5 0 0 1 0 1zm0 3h-6a.5.5 0 0 1 0-1h6a.5.5 0 0 1 0 1zm0 3h-6a.5.5 0 0 1 0-1h6a.5.5 0 0 1 0 1zm30.022-18.994h-8a.5.5 0 0 1-.5-.5v-3a.5.5 0 0 1 .5-.5h8a.5.5 0 0 1 .5.5v3a.5.5 0 0 1-.5.5zm-7.5-1h7v-2h-7v2z"/></svg>